<svg width="187" height="560" viewBox="0 0 187 560" fill="none" xmlns="http://www.w3.org/2000/svg">
<path d="M0 255.674L187 0V48.2058L0 304.49V255.674Z" fill="white"/>
<path d="M0 255.674L187 0V48.2058L0 304.49V255.674Z" fill="white"/>
<path d="M0 255.674L187 0V48.2058L0 304.49V255.674Z" fill="white"/>
<path d="M0 255.674L187 0V48.2058L0 304.49V255.674Z" fill="white"/>
<path d="M0 304.326L187 560V511.794L0 255.51V304.326Z" fill="white"/>
<path d="M0 304.326L187 560V511.794L0 255.51V304.326Z" fill="white"/>
<path d="M0 304.326L187 560V511.794L0 255.51V304.326Z" fill="white"/>
<path d="M0 304.326L187 560V511.794L0 255.51V304.326Z" fill="white"/>
<rect y="258.776" width="29.1902" height="45.7143" fill="white"/>
</svg>
