<svg width="327" height="177" viewBox="0 0 327 177" fill="none" xmlns="http://www.w3.org/2000/svg">
<path d="M163.294 0.133789L325.794 90.1338L326.606 90.584L325.783 91.0146L163.283 176.015L163.051 176.136L162.818 176.014L0.818359 90.5137L0 90.0811L0.80957 89.6338L162.81 0.133789L163.052 0L163.294 0.133789ZM161.868 40.2002L73.3682 89.2002L72.5557 89.6504L73.3789 90.0811L126.879 118.081L127.12 118.207L127.356 118.072L198.606 77.7129L216.606 88.1338L147.362 127.703L146.573 128.154L147.376 128.58L164.376 137.58L164.618 137.707L164.855 137.573L251.855 88.5732L252.641 88.1318L251.851 87.6992L198.851 58.6992L198.607 58.5664L198.366 58.7012L127.108 98.5654L108.143 88.1338L142.354 69.0742L177.354 49.5742L178.131 49.1416L177.356 48.7031L162.356 40.2031L162.113 40.0645L161.868 40.2002Z" fill="black"/>
</svg>
